<?xml version="1.0" encoding="UTF-8" standalone="no" ?>
<!DOCTYPE svg PUBLIC "-//W3C//DTD SVG 1.1//EN" "http://www.w3.org/Graphics/SVG/1.1/DTD/svg11.dtd">
<svg xmlns="http://www.w3.org/2000/svg" xmlns:xlink="http://www.w3.org/1999/xlink" version="1.1" width="442.45703125" height="117.68790000000001" xml:space="preserve">
<desc>Created with Fabric.js 1.6.0-rc.1</desc>
<defs></defs>
<g style="stroke: none; stroke-width: 1; stroke-dasharray: none; stroke-linecap: butt; stroke-linejoin: miter; stroke-miterlimit: 10; fill: none; fill-rule: nonzero; opacity: 1;" transform="translate(10 10) scale(0.23 0.23)" >
  <path d="M 497.903 423.366 c -1.15 0.235 -2.339 0.359 -3.559 0.359 C 495.564 423.724 496.754 423.601 497.903 423.366 z" style="stroke: none; stroke-width: 1; stroke-dasharray: none; stroke-linecap: butt; stroke-linejoin: miter; stroke-miterlimit: 10; fill: #BEC8DC; fill-rule: nonzero; opacity: 1;" transform=" matrix(1 0 0 1 0 0) " stroke-linecap="round" />
  <path d="M 17.655 423.724 c -1.219 0 -2.409 -0.124 -3.559 -0.359 C 15.246 423.601 16.436 423.724 17.655 423.724 z" style="stroke: none; stroke-width: 1; stroke-dasharray: none; stroke-linecap: butt; stroke-linejoin: miter; stroke-miterlimit: 10; fill: #BEC8DC; fill-rule: nonzero; opacity: 1;" transform=" matrix(1 0 0 1 0 0) " stroke-linecap="round" />
  <path d="M 208.202 398.75 l -5.167 -10.336 H 17.655 H 8.828 c -4.875 0 -8.828 3.953 -8.828 8.828 v 8.828 h 220.045 C 215.03 406.069 210.445 403.235 208.202 398.75 z" style="stroke: none; stroke-width: 1; stroke-dasharray: none; stroke-linecap: butt; stroke-linejoin: miter; stroke-miterlimit: 10; fill: #BEC8DC; fill-rule: nonzero; opacity: 1;" transform=" matrix(1 0 0 1 0 0) " stroke-linecap="round" />
  <path d="M 497.903 423.366 c 6.895 -1.411 12.328 -6.842 13.738 -13.738 C 510.23 416.523 504.799 421.954 497.903 423.366 z" style="stroke: none; stroke-width: 1; stroke-dasharray: none; stroke-linecap: butt; stroke-linejoin: miter; stroke-miterlimit: 10; fill: #BEC8DC; fill-rule: nonzero; opacity: 1;" transform=" matrix(1 0 0 1 0 0) " stroke-linecap="round" />
  <path d="M 0.359 409.628 c 1.411 6.897 6.842 12.327 13.738 13.738 C 7.201 421.954 1.77 416.523 0.359 409.628 z" style="stroke: none; stroke-width: 1; stroke-dasharray: none; stroke-linecap: butt; stroke-linejoin: miter; stroke-miterlimit: 10; fill: #BEC8DC; fill-rule: nonzero; opacity: 1;" transform=" matrix(1 0 0 1 0 0) " stroke-linecap="round" />
  <path d="M 503.172 388.414 h -8.828 H 308.966 l -5.167 10.336 c -2.243 4.486 -6.828 7.319 -11.843 7.319 H 512 v -8.828 C 512 392.366 508.047 388.414 503.172 388.414 z" style="stroke: none; stroke-width: 1; stroke-dasharray: none; stroke-linecap: butt; stroke-linejoin: miter; stroke-miterlimit: 10; fill: #BEC8DC; fill-rule: nonzero; opacity: 1;" transform=" matrix(1 0 0 1 0 0) " stroke-linecap="round" />
  <path d="M 0.359 409.628 C 0.124 408.478 0 407.287 0 406.069 C 0 407.287 0.124 408.478 0.359 409.628 z" style="stroke: none; stroke-width: 1; stroke-dasharray: none; stroke-linecap: butt; stroke-linejoin: miter; stroke-miterlimit: 10; fill: #BEC8DC; fill-rule: nonzero; opacity: 1;" transform=" matrix(1 0 0 1 0 0) " stroke-linecap="round" />
  <path d="M 512 406.069 c 0 1.218 -0.124 2.409 -0.359 3.559 C 511.876 408.478 512 407.287 512 406.069 z" style="stroke: none; stroke-width: 1; stroke-dasharray: none; stroke-linecap: butt; stroke-linejoin: miter; stroke-miterlimit: 10; fill: #BEC8DC; fill-rule: nonzero; opacity: 1;" transform=" matrix(1 0 0 1 0 0) " stroke-linecap="round" />
  <path d="M 220.045 406.069 H 0 c 0 1.218 0.124 2.409 0.359 3.559 c 1.411 6.895 6.842 12.327 13.738 13.738 c 1.15 0.235 2.339 0.359 3.559 0.359 h 476.69 c 1.219 0 2.409 -0.124 3.559 -0.359 c 6.895 -1.411 12.328 -6.842 13.738 -13.738 c 0.235 -1.15 0.359 -2.339 0.359 -3.559 H 291.955 L 220.045 406.069 L 220.045 406.069 z" style="stroke: none; stroke-width: 1; stroke-dasharray: none; stroke-linecap: butt; stroke-linejoin: miter; stroke-miterlimit: 10; fill: #AFBBD0; fill-rule: nonzero; opacity: 1;" transform=" matrix(1 0 0 1 0 0) " stroke-linecap="round" />
  <path d="M 208.202 398.75 c 2.243 4.486 6.828 7.319 11.843 7.319 h 71.908 c 5.015 0 9.6 -2.834 11.843 -7.319 l 5.169 -10.336 H 203.034 L 208.202 398.75 z" style="stroke: none; stroke-width: 1; stroke-dasharray: none; stroke-linecap: butt; stroke-linejoin: miter; stroke-miterlimit: 10; fill: #96A5B9; fill-rule: nonzero; opacity: 1;" transform=" matrix(1 0 0 1 0 0) " stroke-linecap="round" />
  <path d="M 308.966 388.414 h 185.379 V 104.828 c 0 -9.141 -7.411 -16.552 -16.552 -16.552 H 34.207 c -9.141 0 -16.552 7.411 -16.552 16.552 v 283.586 h 185.379 H 308.966 z M 44.138 167.724 v -52.966 h 423.724 v 52.966 v 194.207 H 44.138 V 167.724 z" style="stroke: none; stroke-width: 1; stroke-dasharray: none; stroke-linecap: butt; stroke-linejoin: miter; stroke-miterlimit: 10; fill: #464655; fill-rule: nonzero; opacity: 1;" transform=" matrix(1 0 0 1 0 0) " stroke-linecap="round" />
  <path d="M 467.862 167.724 H 44.138 v 194.207 h 423.724 V 167.724 z M 256 211.862 v 114.759 c 0 4.875 -3.953 8.828 -8.828 8.828 H 79.448 c -4.875 0 -8.828 -3.953 -8.828 -8.828 V 211.862 v -8.828 c 0 -4.875 3.953 -8.828 8.828 -8.828 h 167.724 c 4.875 0 8.828 3.953 8.828 8.828 V 211.862 z M 344.276 211.862 v 114.759 c 0 4.875 -3.953 8.828 -8.828 8.828 h -52.966 c -4.875 0 -8.828 -3.953 -8.828 -8.828 V 211.862 v -8.828 c 0 -4.875 3.953 -8.828 8.828 -8.828 h 52.966 c 4.875 0 8.828 3.953 8.828 8.828 V 211.862 z M 441.379 211.862 v 114.759 c 0 4.875 -3.953 8.828 -8.828 8.828 h -52.966 c -4.875 0 -8.828 -3.953 -8.828 -8.828 V 211.862 v -8.828 c 0 -4.875 3.953 -8.828 8.828 -8.828 h 52.966 c 4.875 0 8.828 3.953 8.828 8.828 V 211.862 z" style="stroke: none; stroke-width: 1; stroke-dasharray: none; stroke-linecap: butt; stroke-linejoin: miter; stroke-miterlimit: 10; fill: #FFFFFF; fill-rule: nonzero; opacity: 1;" transform=" matrix(1 0 0 1 0 0) " stroke-linecap="round" />
  <path d="M 467.862 114.759 H 44.138 v 52.966 h 423.724 V 114.759 z M 158.897 150.069 H 70.621 c -4.875 0 -8.828 -3.953 -8.828 -8.828 s 3.953 -8.828 8.828 -8.828 h 88.276 c 4.875 0 8.828 3.953 8.828 8.828 S 163.772 150.069 158.897 150.069 z M 229.517 150.069 h -35.31 c -4.875 0 -8.828 -3.953 -8.828 -8.828 s 3.953 -8.828 8.828 -8.828 h 35.31 c 4.875 0 8.828 3.953 8.828 8.828 S 234.392 150.069 229.517 150.069 z M 300.138 150.069 h -35.31 c -4.875 0 -8.828 -3.953 -8.828 -8.828 s 3.953 -8.828 8.828 -8.828 h 35.31 c 4.875 0 8.828 3.953 8.828 8.828 S 305.013 150.069 300.138 150.069 z M 370.759 150.069 h -35.31 c -4.875 0 -8.828 -3.953 -8.828 -8.828 s 3.953 -8.828 8.828 -8.828 h 35.31 c 4.875 0 8.828 3.953 8.828 8.828 S 375.634 150.069 370.759 150.069 z M 441.379 150.069 h -35.31 c -4.875 0 -8.828 -3.953 -8.828 -8.828 s 3.953 -8.828 8.828 -8.828 h 35.31 c 4.875 0 8.828 3.953 8.828 8.828 S 446.254 150.069 441.379 150.069 z" style="stroke: none; stroke-width: 1; stroke-dasharray: none; stroke-linecap: butt; stroke-linejoin: miter; stroke-miterlimit: 10; fill: #FF6469; fill-rule: nonzero; opacity: 1;" transform=" matrix(1 0 0 1 0 0) " stroke-linecap="round" />
  <path d="M 158.897 132.414 H 70.621 c -4.875 0 -8.828 3.953 -8.828 8.828 s 3.953 8.828 8.828 8.828 h 88.276 c 4.875 0 8.828 -3.953 8.828 -8.828 S 163.772 132.414 158.897 132.414 z" style="stroke: none; stroke-width: 1; stroke-dasharray: none; stroke-linecap: butt; stroke-linejoin: miter; stroke-miterlimit: 10; fill: #FFDC69; fill-rule: nonzero; opacity: 1;" transform=" matrix(1 0 0 1 0 0) " stroke-linecap="round" />
  <path d="M 229.517 132.414 h -35.31 c -4.875 0 -8.828 3.953 -8.828 8.828 s 3.953 8.828 8.828 8.828 h 35.31 c 4.875 0 8.828 -3.953 8.828 -8.828 S 234.392 132.414 229.517 132.414 z" style="stroke: none; stroke-width: 1; stroke-dasharray: none; stroke-linecap: butt; stroke-linejoin: miter; stroke-miterlimit: 10; fill: #D2555F; fill-rule: nonzero; opacity: 1;" transform=" matrix(1 0 0 1 0 0) " stroke-linecap="round" />
  <path d="M 300.138 132.414 h -35.31 c -4.875 0 -8.828 3.953 -8.828 8.828 s 3.953 8.828 8.828 8.828 h 35.31 c 4.875 0 8.828 -3.953 8.828 -8.828 S 305.013 132.414 300.138 132.414 z" style="stroke: none; stroke-width: 1; stroke-dasharray: none; stroke-linecap: butt; stroke-linejoin: miter; stroke-miterlimit: 10; fill: #D2555F; fill-rule: nonzero; opacity: 1;" transform=" matrix(1 0 0 1 0 0) " stroke-linecap="round" />
  <path d="M 370.759 132.414 h -35.31 c -4.875 0 -8.828 3.953 -8.828 8.828 s 3.953 8.828 8.828 8.828 h 35.31 c 4.875 0 8.828 -3.953 8.828 -8.828 S 375.634 132.414 370.759 132.414 z" style="stroke: none; stroke-width: 1; stroke-dasharray: none; stroke-linecap: butt; stroke-linejoin: miter; stroke-miterlimit: 10; fill: #D2555F; fill-rule: nonzero; opacity: 1;" transform=" matrix(1 0 0 1 0 0) " stroke-linecap="round" />
  <path d="M 441.379 132.414 h -35.31 c -4.875 0 -8.828 3.953 -8.828 8.828 s 3.953 8.828 8.828 8.828 h 35.31 c 4.875 0 8.828 -3.953 8.828 -8.828 S 446.254 132.414 441.379 132.414 z" style="stroke: none; stroke-width: 1; stroke-dasharray: none; stroke-linecap: butt; stroke-linejoin: miter; stroke-miterlimit: 10; fill: #D2555F; fill-rule: nonzero; opacity: 1;" transform=" matrix(1 0 0 1 0 0) " stroke-linecap="round" />
  <path d="M 247.172 220.69 H 79.448 c -4.875 0 -8.828 -3.953 -8.828 -8.828 v 114.759 c 0 4.875 3.953 8.828 8.828 8.828 h 167.724 c 4.875 0 8.828 -3.953 8.828 -8.828 V 211.862 C 256 216.737 252.047 220.69 247.172 220.69 z" style="stroke: none; stroke-width: 1; stroke-dasharray: none; stroke-linecap: butt; stroke-linejoin: miter; stroke-miterlimit: 10; fill: #DEE3ED; fill-rule: nonzero; opacity: 1;" transform=" matrix(1 0 0 1 0 0) " stroke-linecap="round" />
  <path d="M 335.448 220.69 h -52.966 c -4.875 0 -8.828 -3.953 -8.828 -8.828 v 114.759 c 0 4.875 3.953 8.828 8.828 8.828 h 52.966 c 4.875 0 8.828 -3.953 8.828 -8.828 V 211.862 C 344.276 216.737 340.323 220.69 335.448 220.69 z" style="stroke: none; stroke-width: 1; stroke-dasharray: none; stroke-linecap: butt; stroke-linejoin: miter; stroke-miterlimit: 10; fill: #DEE3ED; fill-rule: nonzero; opacity: 1;" transform=" matrix(1 0 0 1 0 0) " stroke-linecap="round" />
  <path d="M 432.552 220.69 h -52.966 c -4.875 0 -8.828 -3.953 -8.828 -8.828 v 114.759 c 0 4.875 3.953 8.828 8.828 8.828 h 52.966 c 4.875 0 8.828 -3.953 8.828 -8.828 V 211.862 C 441.379 216.737 437.427 220.69 432.552 220.69 z" style="stroke: none; stroke-width: 1; stroke-dasharray: none; stroke-linecap: butt; stroke-linejoin: miter; stroke-miterlimit: 10; fill: #DEE3ED; fill-rule: nonzero; opacity: 1;" transform=" matrix(1 0 0 1 0 0) " stroke-linecap="round" />
  <path d="M 247.172 194.207 H 79.448 c -4.875 0 -8.828 3.953 -8.828 8.828 v 8.828 c 0 4.875 3.953 8.828 8.828 8.828 h 167.724 c 4.875 0 8.828 -3.953 8.828 -8.828 v -8.828 C 256 198.159 252.047 194.207 247.172 194.207 z" style="stroke: none; stroke-width: 1; stroke-dasharray: none; stroke-linecap: butt; stroke-linejoin: miter; stroke-miterlimit: 10; fill: #FFDC69; fill-rule: nonzero; opacity: 1;" transform=" matrix(1 0 0 1 0 0) " stroke-linecap="round" />
  <path d="M 335.448 194.207 h -52.966 c -4.875 0 -8.828 3.953 -8.828 8.828 v 8.828 c 0 4.875 3.953 8.828 8.828 8.828 h 52.966 c 4.875 0 8.828 -3.953 8.828 -8.828 v -8.828 C 344.276 198.159 340.323 194.207 335.448 194.207 z" style="stroke: none; stroke-width: 1; stroke-dasharray: none; stroke-linecap: butt; stroke-linejoin: miter; stroke-miterlimit: 10; fill: #B4E173; fill-rule: nonzero; opacity: 1;" transform=" matrix(1 0 0 1 0 0) " stroke-linecap="round" />
  <path d="M 432.552 194.207 h -52.966 c -4.875 0 -8.828 3.953 -8.828 8.828 v 8.828 c 0 4.875 3.953 8.828 8.828 8.828 h 52.966 c 4.875 0 8.828 -3.953 8.828 -8.828 v -8.828 C 441.379 198.159 437.427 194.207 432.552 194.207 z" style="stroke: none; stroke-width: 1; stroke-dasharray: none; stroke-linecap: butt; stroke-linejoin: miter; stroke-miterlimit: 10; fill: #FF969B; fill-rule: nonzero; opacity: 1;" transform=" matrix(1 0 0 1 0 0) " stroke-linecap="round" />
</g>
  <g transform="translate(286.23 69.7)">
   <text font-family="Arial" font-size="40" font-weight="bold" style="stroke: none; stroke-width: 1; stroke-dasharray: none; stroke-linecap: butt; stroke-linejoin: miter; stroke-miterlimit: 10; fill: #ffffff; fill-rule: nonzero; opacity: 1;" ><tspan x="-146.73" y="8.98" style="stroke: none; stroke-width: 0; stroke-dasharray: none; stroke-linecap: butt; stroke-linejoin: miter; stroke-miterlimit: 4; fill: #ffffff; fill-rule: ; opacity: 1;">P</tspan><tspan x="-120.05" y="8.98" style="stroke: none; stroke-width: 0; stroke-dasharray: none; stroke-linecap: butt; stroke-linejoin: miter; stroke-miterlimit: 4; fill: #ffffff; fill-rule: ; opacity: 1;">S</tspan><tspan x="-93.37" y="8.98" style="stroke: none; stroke-width: 0; stroke-dasharray: none; stroke-linecap: butt; stroke-linejoin: miter; stroke-miterlimit: 4; fill: #ffffff; fill-rule: ; opacity: 1;">&amp;</tspan><tspan x="-66.69" y="8.98" style="stroke: none; stroke-width: 0; stroke-dasharray: none; stroke-linecap: butt; stroke-linejoin: miter; stroke-miterlimit: 4; fill: #ffffff; fill-rule: ; opacity: 1;">G</tspan><tspan x="-35.58" y="8.98" style="stroke: none; stroke-width: 0; stroke-dasharray: none; stroke-linecap: butt; stroke-linejoin: miter; stroke-miterlimit: 4; fill: #ffffff; fill-rule: ; opacity: 1;"> </tspan><tspan x="-24.46" y="8.98" style="stroke: none; stroke-width: 0; stroke-dasharray: none; stroke-linecap: butt; stroke-linejoin: miter; stroke-miterlimit: 4; fill: #ffffff; fill-rule: ; opacity: 1;">C</tspan><tspan x="4.42" y="8.98" style="stroke: none; stroke-width: 0; stroke-dasharray: none; stroke-linecap: butt; stroke-linejoin: miter; stroke-miterlimit: 4; fill: #ffffff; fill-rule: ; opacity: 1;">o</tspan><tspan x="26.67" y="8.98" style="stroke: none; stroke-width: 0; stroke-dasharray: none; stroke-linecap: butt; stroke-linejoin: miter; stroke-miterlimit: 4; fill: #ffffff; fill-rule: ; opacity: 1;">m</tspan><tspan x="59.99" y="8.98" style="stroke: none; stroke-width: 0; stroke-dasharray: none; stroke-linecap: butt; stroke-linejoin: miter; stroke-miterlimit: 4; fill: #ffffff; fill-rule: ; opacity: 1;">p</tspan><tspan x="82.24" y="8.98" style="stroke: none; stroke-width: 0; stroke-dasharray: none; stroke-linecap: butt; stroke-linejoin: miter; stroke-miterlimit: 4; fill: #ffffff; fill-rule: ; opacity: 1;">a</tspan><tspan x="104.48" y="8.98" style="stroke: none; stroke-width: 0; stroke-dasharray: none; stroke-linecap: butt; stroke-linejoin: miter; stroke-miterlimit: 4; fill: #ffffff; fill-rule: ; opacity: 1;">n</tspan><tspan x="126.73" y="8.98" style="stroke: none; stroke-width: 0; stroke-dasharray: none; stroke-linecap: butt; stroke-linejoin: miter; stroke-miterlimit: 4; fill: #ffffff; fill-rule: ; opacity: 1;">y</tspan></text>
 </g>
</svg>